# 3ds Max Wavefront OBJ Exporter v0.97b - (c)2007 guruware
# File Created: 27.03.2019 14:09:22

mtllib Mud 2.mtl

#
# object Cylinder009
#

v  13.5344 0.0000 -1.9407
v  14.8702 0.0000 -4.7103
v  14.8702 0.4980 -4.7103
v  13.5344 0.4980 -1.9407
v  16.1723 0.0000 -7.2167
v  16.1723 0.4980 -7.2167
v  14.4768 0.8715 -6.4588
v  13.6310 0.8715 -4.3178
v  12.1348 0.8715 -1.7392
v  16.4246 0.0000 -9.1286
v  16.4246 0.4980 -9.1286
v  15.8325 0.0000 -10.8460
v  15.8325 0.4980 -10.8460
v  14.1766 0.8715 -9.7184
v  15.0559 0.8715 -8.3679
v  14.6015 0.0000 -12.7688
v  14.6015 0.4980 -12.7688
v  12.9255 0.0000 -14.4576
v  12.9255 0.4980 -14.4576
v  11.5765 0.8715 -12.9446
v  13.3847 0.8715 -11.7047
v  10.9984 0.0000 -15.4731
v  10.9984 0.4980 -15.4731
v  8.8168 0.0000 -15.9074
v  8.8168 0.4980 -15.9074
v  7.8957 0.8715 -14.2453
v  10.0818 0.8715 -14.1837
v  6.3776 0.0000 -15.8526
v  6.3776 0.4980 -15.8526
v  4.0095 0.0000 -15.3416
v  4.0095 0.4980 -15.3416
v  3.5960 0.8715 -13.7391
v  5.8462 0.8715 -14.5316
v  2.0410 0.0000 -14.4071
v  2.0410 0.4980 -14.4071
v  0.1770 0.0000 -13.8544
v  0.1770 0.4980 -13.8544
v  0.1566 0.8715 -12.4236
v  1.8709 0.8715 -13.2065
v  -1.8776 0.0000 -14.4888
v  -1.8776 0.4980 -14.4888
v  -4.0776 0.0000 -15.3348
v  -4.0776 0.4980 -15.3348
v  -3.6539 0.8715 -13.7295
v  -1.7211 0.8715 -13.2814
v  -6.3776 0.0000 -15.4168
v  -6.3776 0.4980 -15.4168
v  -8.5240 0.0000 -14.7634
v  -8.5240 0.4980 -14.7634
v  -7.6319 0.8715 -13.2182
v  -5.8462 0.8715 -14.1321
v  -10.2629 0.0000 -13.4031
v  -10.2629 0.4980 -13.4031
v  -11.4002 0.0000 -11.5500
v  -11.4002 0.4980 -11.5500
v  -10.2044 0.8715 -10.3440
v  -9.4077 0.8715 -12.2861
v  -11.7416 0.0000 -9.4186
v  -11.7416 0.4980 -9.4186
v  -12.3461 0.0000 -7.3869
v  -12.3461 0.4980 -7.3869
v  -11.0738 0.8715 -6.6224
v  -10.7631 0.8715 -8.6337
v  -14.2728 0.0000 -5.8329
v  -14.2728 0.4980 -5.8329
v  -16.3902 0.0000 -4.1593
v  -16.3902 0.4980 -4.1593
v  -14.6731 0.8715 -3.7186
v  -13.0834 0.8715 -5.3468
v  -17.5667 0.0000 -1.7686
v  -17.5667 0.4980 -1.7686
v  -17.8584 0.0000 0.8988
v  -17.8584 0.4980 0.8988
v  -15.9895 0.8715 0.8035
v  -16.1028 0.8715 -1.6213
v  -17.3215 0.0000 3.4029
v  -17.3215 0.4980 3.4029
v  -15.8035 0.0000 5.6500
v  -15.8035 0.4980 5.6500
v  -14.1455 0.8715 5.0578
v  -15.8781 0.8715 3.1193
v  -13.1514 0.0000 7.5466
v  -13.1514 0.4980 7.5466
v  -10.7037 0.0000 9.4257
v  -10.7037 0.4980 9.4257
v  -9.6048 0.8715 8.4471
v  -12.0555 0.8715 6.9177
v  -9.7984 0.0000 11.6203
v  -9.7984 0.4980 11.6203
v  -9.4434 0.0000 13.7925
v  -9.4434 0.4980 13.7925
v  -8.4551 0.8715 12.3521
v  -8.9818 0.8715 10.6519
v  -8.6466 0.0000 15.6047
v  -8.6466 0.4980 15.6047
v  -7.4047 0.0000 17.1694
v  -7.4047 0.4980 17.1694
v  -6.6287 0.8715 15.3795
v  -7.9260 0.8715 14.3043
v  -5.7146 0.0000 18.5990
v  -5.7146 0.4980 18.5990
v  -3.7076 0.0000 19.4629
v  -3.7076 0.4980 19.4629
v  -3.3194 0.8715 17.4252
v  -5.2384 0.8715 17.0491
v  -1.5152 0.0000 19.3303
v  -1.5152 0.4980 19.3303
v  0.6681 0.0000 18.2856
v  0.6681 0.4980 18.2856
v  0.5964 0.8715 16.3723
v  -1.3889 0.8715 17.7194
v  2.6476 0.0000 16.4136
v  2.6476 0.4980 16.4136
v  4.5811 0.0000 14.8229
v  4.5811 0.4980 14.8229
v  4.1050 0.8715 13.2934
v  2.4269 0.8715 15.0458
v  6.6264 0.0000 14.6224
v  6.6264 0.4980 14.6224
v  8.8041 0.0000 14.7827
v  8.8041 0.4980 14.7827
v  7.8886 0.8715 13.2359
v  6.0742 0.8715 13.4039
v  11.1345 0.0000 14.2747
v  11.1345 0.4980 14.2747
v  13.1366 0.0000 13.0549
v  13.1366 0.4980 13.0549
v  11.7598 0.8715 11.6871
v  10.2067 0.8715 13.0851
v  14.3291 0.0000 11.0801
v  14.3291 0.4980 11.0801
v  14.6953 0.0000 8.6534
v  14.6953 0.4980 8.6534
v  13.1558 0.8715 7.7505
v  13.1350 0.8715 10.1567
v  14.2184 0.0000 6.0780
v  14.2184 0.4980 6.0780
v  13.5099 0.0000 3.4239
v  13.5099 0.4980 3.4239
v  12.1065 0.8715 3.0671
v  13.0335 0.8715 5.5715
v  13.1814 0.0000 0.7609
v  13.1814 0.4980 0.7609
v  12.0830 0.8715 0.6974
v  9.9134 0.9960 -3.1402
v  7.9360 0.9960 -1.1349
v  9.3901 0.9960 -4.1850
v  0.0266 0.9960 0.0193
v  10.9497 0.9960 -6.0858
v  9.2090 0.9960 -6.3354
v  9.7343 0.9960 -8.5125
v  7.5294 0.9960 -8.4056
v  7.3322 0.9960 -10.3154
v  5.1324 0.9960 -9.2589
v  4.2518 0.9960 -10.5684
v  2.3555 0.9960 -8.9316
v  1.3607 0.9960 -9.6047
v  0.0953 0.9960 -8.1312
v  -1.2517 0.9960 -9.6592
v  -2.3828 0.9960 -8.9135
v  -4.2518 0.9960 -10.2779
v  -4.9554 0.9960 -8.5825
v  -6.8420 0.9960 -8.9354
v  -6.6170 0.9960 -6.7259
v  -7.8277 0.9960 -6.2791
v  -7.2570 0.9960 -4.3289
v  -9.5152 0.9960 -3.8886
v  -9.5218 0.9960 -2.3964
v  -11.7111 0.9960 -1.1791
v  -10.3829 0.9960 0.5175
v  -11.5477 0.9960 2.2686
v  -9.1714 0.9960 3.2812
v  -8.7676 0.9960 5.0310
v  -6.3081 0.9960 5.5115
v  -6.5322 0.9960 7.7468
v  -5.4902 0.9960 8.0306
v  -5.7644 0.9960 10.4031
v  -4.3008 0.9960 10.0098
v  -3.8097 0.9960 12.3994
v  -2.1550 0.9960 11.3119
v  -1.0101 0.9960 12.8869
v  0.3812 0.9960 10.6321
v  1.7650 0.9960 10.9424
v  2.6770 0.9960 8.7046
v  4.4176 0.9960 9.7483
v  5.1421 0.9960 8.5954
v  7.4230 0.9960 9.5164
v  7.6293 0.9960 7.5839
v  9.5527 0.9960 7.3867
v  8.5371 0.9960 5.0416
v  9.4789 0.9960 4.0520
v  7.8966 0.9960 1.9969
v  8.7876 0.9960 0.5072
# 193 vertices

vn 0.9583 0.0000 0.2856
vn 0.8942 0.0000 0.4478
vn 0.7389 0.5619 0.3718
vn 0.7427 0.6285 0.2309
vn 0.9538 0.0000 0.3005
vn 0.7778 0.5832 0.2344
vn 0.1454 0.9879 0.0533
vn 0.1967 0.9751 0.1027
vn 0.1308 0.9909 0.0322
vn 0.9950 0.0000 -0.1002
vn 0.8143 0.5736 -0.0891
vn 0.9001 0.0000 -0.4356
vn 0.7088 0.6156 -0.3443
vn 0.0867 0.9952 -0.0455
vn 0.1794 0.9838 -0.0001
vn 0.7804 0.0000 -0.6253
vn 0.6225 0.6028 -0.4992
vn 0.5948 0.0000 -0.8038
vn 0.4717 0.6108 -0.6360
vn 0.0599 0.9951 -0.0790
vn 0.1139 0.9895 -0.0893
vn 0.3342 0.0000 -0.9425
vn 0.2724 0.5915 -0.7589
vn 0.0869 0.0000 -0.9962
vn 0.0723 0.6087 -0.7901
vn 0.0107 0.9935 -0.1135
vn 0.0457 0.9875 -0.1509
vn -0.1172 0.0000 -0.9931
vn -0.0907 0.5822 -0.8080
vn -0.3220 0.0000 -0.9467
vn -0.2545 0.5897 -0.7665
vn -0.0443 0.9896 -0.1366
vn -0.0328 0.9826 -0.1830
vn -0.3576 0.0000 -0.9339
vn -0.2938 0.5898 -0.7522
vn 0.0056 0.0000 -1.0000
vn 0.0038 0.6723 -0.7403
vn 0.0001 0.9938 -0.1113
vn -0.0726 0.9808 -0.1812
vn 0.3271 0.0000 -0.9450
vn 0.2668 0.5867 -0.7646
vn 0.2000 0.0000 -0.9798
vn 0.1561 0.5872 -0.7943
vn 0.0289 0.9903 -0.1356
vn 0.0671 0.9810 -0.1819
vn -0.1296 0.0000 -0.9916
vn -0.1095 0.5767 -0.8096
vn -0.4615 0.0000 -0.8871
vn -0.3708 0.5967 -0.7117
vn -0.0529 0.9934 -0.1021
vn -0.0149 0.9842 -0.1763
vn -0.7460 0.0000 -0.6659
vn -0.6075 0.5771 -0.5459
vn -0.9378 0.0000 -0.3472
vn -0.7583 0.5851 -0.2874
vn -0.1272 0.9908 -0.0456
vn -0.1335 0.9849 -0.1100
vn -0.9750 0.0000 -0.2221
vn -0.7836 0.5962 -0.1746
vn -0.8306 0.0000 -0.5569
vn -0.6095 0.6778 -0.4113
vn -0.0903 0.9942 -0.0586
vn -0.1808 0.9827 -0.0395
vn -0.6239 0.0000 -0.7815
vn -0.5055 0.5857 -0.6336
vn -0.7778 0.0000 -0.6285
vn -0.6351 0.5846 -0.5048
vn -0.1015 0.9910 -0.0867
vn -0.1153 0.9816 -0.1520
vn -0.9602 0.0000 -0.2793
vn -0.7816 0.5819 -0.2247
vn -0.9987 0.0000 0.0511
vn -0.7957 0.6043 0.0407
vn -0.1093 0.9940 0.0052
vn -0.1554 0.9865 -0.0513
vn -0.9200 0.0000 0.3919
vn -0.7515 0.5787 0.3167
vn -0.7165 0.0000 0.6976
vn -0.5818 0.5910 0.5588
vn -0.0923 0.9912 0.0951
vn -0.1501 0.9861 0.0707
vn -0.5954 0.0000 0.8034
vn -0.4794 0.5915 0.6483
vn -0.7939 0.0000 0.6081
vn -0.5925 0.6678 0.4505
vn -0.0897 0.9936 0.0684
vn -0.1059 0.9834 0.1471
vn -0.9620 0.0000 0.2731
vn -0.7774 0.5929 0.2104
vn -0.9588 -0.0000 0.2841
vn -0.7739 0.5873 0.2371
vn -0.1416 0.9890 0.0420
vn -0.1821 0.9818 0.0532
vn -0.8564 0.0000 0.5163
vn -0.6943 0.5803 0.4257
vn -0.7181 0.0000 0.6960
vn -0.5652 0.6133 0.5517
vn -0.0743 0.9943 0.0768
vn -0.1694 0.9820 0.0839
vn -0.5263 0.0000 0.8503
vn -0.4212 0.5934 0.6859
vn -0.1722 0.0000 0.9851
vn -0.1381 0.5984 0.7892
vn -0.0171 0.9950 0.0985
vn -0.0865 0.9881 0.1269
vn 0.2507 0.0000 0.9681
vn 0.1988 0.5842 0.7869
vn 0.5662 -0.0000 0.8243
vn 0.4491 0.5965 0.6651
vn 0.0740 0.9918 0.1045
vn 0.0498 0.9869 0.1533
vn 0.6616 -0.0000 0.7498
vn 0.5333 0.5954 0.6009
vn 0.3830 0.0000 0.9237
vn 0.2829 0.6837 0.6727
vn 0.0360 0.9950 0.0931
vn 0.1227 0.9835 0.1331
vn 0.0121 0.0000 0.9999
vn 0.0052 0.6100 0.7924
vn 0.0705 -0.0000 0.9975
vn 0.0616 0.5972 0.7998
vn 0.0102 0.9921 0.1248
vn 0.0003 0.9853 0.1708
vn 0.3718 0.0000 0.9283
vn 0.3054 0.5837 0.7523
vn 0.7085 0.0000 0.7057
vn 0.5704 0.5931 0.5682
vn 0.0766 0.9941 0.0766
vn 0.0538 0.9862 0.1565
vn 0.9406 0.0000 0.3396
vn 0.7658 0.5782 0.2816
vn 0.9999 0.0000 -0.0167
vn 0.8075 0.5899 -0.0066
vn 0.1367 0.9906 -0.0045
vn 0.1627 0.9855 0.0480
vn 0.9755 0.0000 -0.2202
vn 0.8017 0.5706 -0.1780
vn 0.9817 0.0000 -0.1906
vn 0.7738 0.6144 -0.1538
vn 0.1371 0.9903 -0.0214
vn 0.2024 0.9778 -0.0536
vn 1.0000 0.0000 0.0036
vn 0.7959 0.6054 0.0019
vn 0.1803 0.9836 0.0011
vn 0.0285 0.9995 0.0163
vn 0.0090 1.0000 0.0007
vn 0.0077 1.0000 -0.0001
vn 0.0000 1.0000 -0.0000
vn 0.0270 0.9996 0.0029
vn 0.0040 1.0000 -0.0027
vn 0.0166 0.9998 -0.0120
vn 0.0035 1.0000 -0.0040
vn 0.0054 0.9997 -0.0221
vn 0.0020 1.0000 -0.0057
vn -0.0075 0.9996 -0.0272
vn 0.0001 1.0000 -0.0075
vn -0.0128 0.9996 -0.0271
vn -0.0000 1.0000 -0.0066
vn 0.0118 0.9996 -0.0265
vn -0.0003 1.0000 -0.0078
vn -0.0007 0.9997 -0.0251
vn -0.0032 1.0000 -0.0058
vn -0.0199 0.9997 -0.0143
vn -0.0059 1.0000 -0.0042
vn -0.0268 0.9996 -0.0056
vn -0.0056 1.0000 -0.0034
vn -0.0154 0.9996 -0.0236
vn -0.0071 1.0000 -0.0036
vn -0.0211 0.9997 -0.0084
vn -0.0067 1.0000 0.0003
vn -0.0203 0.9997 0.0105
vn -0.0070 1.0000 0.0050
vn -0.0136 0.9997 0.0213
vn -0.0059 1.0000 0.0046
vn -0.0263 0.9996 0.0088
vn -0.0052 1.0000 0.0043
vn -0.0280 0.9996 0.0103
vn -0.0025 1.0000 0.0045
vn -0.0133 0.9998 0.0176
vn -0.0009 1.0000 0.0051
vn 0.0079 0.9997 0.0215
vn 0.0021 1.0000 0.0065
vn 0.0198 0.9996 0.0187
vn 0.0018 1.0000 0.0056
vn -0.0005 0.9997 0.0256
vn 0.0024 1.0000 0.0061
vn 0.0063 0.9997 0.0228
vn 0.0043 1.0000 0.0043
vn 0.0235 0.9997 0.0055
vn 0.0073 1.0000 0.0019
vn 0.0295 0.9995 -0.0095
vn 0.0091 1.0000 0.0001
vn 0.0250 0.9997 0.0004
# 193 vertex normals

vt 0.9716 0.3386 0.0000
vt 0.9716 0.2638 0.0000
vt 0.9851 0.2638 0.0000
vt 0.9851 0.3386 0.0000
vt 0.9716 0.1961 0.0000
vt 0.9851 0.1961 0.0000
vt 0.0490 0.2384 0.0000
vt 0.0657 0.2983 0.0000
vt 0.0335 0.2842 0.0000
vt 0.0056 0.2132 0.0000
vt 0.0986 0.3718 0.0000
vt 0.0616 0.3624 0.0000
vt 0.9716 0.1445 0.0000
vt 0.9851 0.1445 0.0000
vt 0.9716 0.0981 0.0000
vt 0.9851 0.0981 0.0000
vt 0.0663 0.1516 0.0000
vt 0.0389 0.1854 0.0000
vt 0.0043 0.1611 0.0000
vt 0.0250 0.1167 0.0000
vt 0.9716 0.0461 0.0000
vt 0.9851 0.0461 0.0000
vt 0.9716 0.0005 0.0000
vt 0.9851 0.0005 0.0000
vt 0.1453 0.0723 0.0000
vt 0.0932 0.1005 0.0000
vt 0.0635 0.0685 0.0000
vt 0.1133 0.0278 0.0000
vt 0.9995 0.0005 0.0000
vt 0.9995 0.0526 0.0000
vt 0.9860 0.0526 0.0000
vt 0.9860 0.0005 0.0000
vt 0.9995 0.1115 0.0000
vt 0.9860 0.1115 0.0000
vt 0.2478 0.0478 0.0000
vt 0.1889 0.0432 0.0000
vt 0.1679 0.0060 0.0000
vt 0.2278 0.0005 0.0000
vt 0.9995 0.1774 0.0000
vt 0.9860 0.1774 0.0000
vt 0.9995 0.2413 0.0000
vt 0.9860 0.2413 0.0000
vt 0.3619 0.0735 0.0000
vt 0.3037 0.0458 0.0000
vt 0.2931 0.0089 0.0000
vt 0.3553 0.0293 0.0000
vt 0.9995 0.2945 0.0000
vt 0.9860 0.2945 0.0000
vt 0.9995 0.3449 0.0000
vt 0.9860 0.3449 0.0000
vt 0.4506 0.1185 0.0000
vt 0.4068 0.0927 0.0000
vt 0.4056 0.0599 0.0000
vt 0.4541 0.0800 0.0000
vt 0.9995 0.4004 0.0000
vt 0.9860 0.4004 0.0000
vt 0.9995 0.4598 0.0000
vt 0.9860 0.4598 0.0000
vt 0.5567 0.0942 0.0000
vt 0.5035 0.1008 0.0000
vt 0.5111 0.0688 0.0000
vt 0.5726 0.0523 0.0000
vt 0.9995 0.5219 0.0000
vt 0.9860 0.5219 0.0000
vt 0.9995 0.5799 0.0000
vt 0.9860 0.5799 0.0000
vt 0.6621 0.1192 0.0000
vt 0.6167 0.0896 0.0000
vt 0.6346 0.0566 0.0000
vt 0.6904 0.0802 0.0000
vt 0.9995 0.6269 0.0000
vt 0.9860 0.6269 0.0000
vt 0.3611 0.0149 0.0000
vt 0.4198 0.0149 0.0000
vt 0.4198 0.0284 0.0000
vt 0.3611 0.0284 0.0000
vt 0.7231 0.2037 0.0000
vt 0.7072 0.1492 0.0000
vt 0.7333 0.1217 0.0000
vt 0.7586 0.1746 0.0000
vt 0.4737 0.0149 0.0000
vt 0.4737 0.0284 0.0000
vt 0.5290 0.0149 0.0000
vt 0.5290 0.0284 0.0000
vt 0.7359 0.3061 0.0000
vt 0.7333 0.2512 0.0000
vt 0.7618 0.2329 0.0000
vt 0.7723 0.2892 0.0000
vt 0.5920 0.0149 0.0000
vt 0.5920 0.0284 0.0000
vt 0.6605 0.0149 0.0000
vt 0.6605 0.0284 0.0000
vt 0.8244 0.3943 0.0000
vt 0.7863 0.3460 0.0000
vt 0.8196 0.3363 0.0000
vt 0.8718 0.3873 0.0000
vt 0.3803 0.0293 0.0000
vt 0.4449 0.0293 0.0000
vt 0.4449 0.0428 0.0000
vt 0.3803 0.0428 0.0000
vt 0.5169 0.0293 0.0000
vt 0.5169 0.0428 0.0000
vt 0.8470 0.5195 0.0000
vt 0.8569 0.4547 0.0000
vt 0.8966 0.4548 0.0000
vt 0.8969 0.5273 0.0000
vt 0.5846 0.0293 0.0000
vt 0.5846 0.0428 0.0000
vt 0.6453 0.0293 0.0000
vt 0.6453 0.0428 0.0000
vt 0.7855 0.6286 0.0000
vt 0.8375 0.5814 0.0000
vt 0.8755 0.5931 0.0000
vt 0.8283 0.6492 0.0000
vt 0.6399 0.0438 0.0000
vt 0.7280 0.0438 0.0000
vt 0.7280 0.0572 0.0000
vt 0.6399 0.0572 0.0000
vt 0.8113 0.0438 0.0000
vt 0.8113 0.0572 0.0000
vt 0.6539 0.7068 0.0000
vt 0.7241 0.6726 0.0000
vt 0.7517 0.6926 0.0000
vt 0.6807 0.7362 0.0000
vt 0.8657 0.0438 0.0000
vt 0.8657 0.0572 0.0000
vt 0.6736 0.0582 0.0000
vt 0.7330 0.0582 0.0000
vt 0.7330 0.0716 0.0000
vt 0.6736 0.0716 0.0000
vt 0.6120 0.8085 0.0000
vt 0.6309 0.7643 0.0000
vt 0.6501 0.7926 0.0000
vt 0.6345 0.8499 0.0000
vt 0.7848 0.0582 0.0000
vt 0.7848 0.0716 0.0000
vt 0.8319 0.0582 0.0000
vt 0.8319 0.0716 0.0000
vt 0.5544 0.8846 0.0000
vt 0.5923 0.8594 0.0000
vt 0.6080 0.8964 0.0000
vt 0.5702 0.9349 0.0000
vt 0.3130 0.0005 0.0000
vt 0.3586 0.0005 0.0000
vt 0.3586 0.0140 0.0000
vt 0.3130 0.0140 0.0000
vt 0.4129 0.0005 0.0000
vt 0.4129 0.0140 0.0000
vt 0.4597 0.9302 0.0000
vt 0.5123 0.9256 0.0000
vt 0.5207 0.9685 0.0000
vt 0.4644 0.9861 0.0000
vt 0.4721 0.0005 0.0000
vt 0.4721 0.0140 0.0000
vt 0.5311 0.0005 0.0000
vt 0.5311 0.0140 0.0000
vt 0.3575 0.8909 0.0000
vt 0.4070 0.9327 0.0000
vt 0.4058 0.9763 0.0000
vt 0.3501 0.9421 0.0000
vt 0.5845 0.0005 0.0000
vt 0.5845 0.0140 0.0000
vt 0.6368 0.0005 0.0000
vt 0.6368 0.0140 0.0000
vt 0.2719 0.7983 0.0000
vt 0.3120 0.8501 0.0000
vt 0.3023 0.8862 0.0000
vt 0.2548 0.8380 0.0000
vt 0.6920 0.0005 0.0000
vt 0.6920 0.0140 0.0000
vt 0.7508 0.0005 0.0000
vt 0.7508 0.0140 0.0000
vt 0.1704 0.7861 0.0000
vt 0.2187 0.7957 0.0000
vt 0.2004 0.8269 0.0000
vt 0.1415 0.8250 0.0000
vt 0.8138 0.0005 0.0000
vt 0.8138 0.0140 0.0000
vt 0.8679 0.0005 0.0000
vt 0.8679 0.0140 0.0000
vt 0.0708 0.7335 0.0000
vt 0.1086 0.7755 0.0000
vt 0.0803 0.8048 0.0000
vt 0.0299 0.7664 0.0000
vt 0.9716 0.7437 0.0000
vt 0.9716 0.6903 0.0000
vt 0.9851 0.6903 0.0000
vt 0.9851 0.7437 0.0000
vt 0.9716 0.6248 0.0000
vt 0.9851 0.6248 0.0000
vt 0.0444 0.6238 0.0000
vt 0.0382 0.6885 0.0000
vt 0.0035 0.7100 0.0000
vt 0.0005 0.6437 0.0000
vt 0.9716 0.5552 0.0000
vt 0.9851 0.5552 0.0000
vt 0.9716 0.4835 0.0000
vt 0.9851 0.4835 0.0000
vt 0.0858 0.5010 0.0000
vt 0.0538 0.5656 0.0000
vt 0.0206 0.5759 0.0000
vt 0.0471 0.5066 0.0000
vt 0.9716 0.4116 0.0000
vt 0.9851 0.4116 0.0000
vt 0.0931 0.4374 0.0000
vt 0.0635 0.4360 0.0000
vt 0.1623 0.3404 0.0000
vt 0.2097 0.3998 0.0000
vt 0.1793 0.3138 0.0000
vt 0.4190 0.4532 0.0000
vt 0.1427 0.2583 0.0000
vt 0.1902 0.2565 0.0000
vt 0.1822 0.1966 0.0000
vt 0.2412 0.2057 0.0000
vt 0.2519 0.1549 0.0000
vt 0.3080 0.1895 0.0000
vt 0.3353 0.1568 0.0000
vt 0.3817 0.2061 0.0000
vt 0.4103 0.1909 0.0000
vt 0.4401 0.2340 0.0000
vt 0.4806 0.1968 0.0000
vt 0.5089 0.2200 0.0000
vt 0.5630 0.1886 0.0000
vt 0.5771 0.2362 0.0000
vt 0.6288 0.2320 0.0000
vt 0.6165 0.2907 0.0000
vt 0.6477 0.3062 0.0000
vt 0.6269 0.3569 0.0000
vt 0.6863 0.3751 0.0000
vt 0.6823 0.4153 0.0000
vt 0.7377 0.4541 0.0000
vt 0.6972 0.4960 0.0000
vt 0.7235 0.5463 0.0000
vt 0.6568 0.5668 0.0000
vt 0.6411 0.6127 0.0000
vt 0.5736 0.6186 0.0000
vt 0.5733 0.6793 0.0000
vt 0.5445 0.6840 0.0000
vt 0.5452 0.7485 0.0000
vt 0.5070 0.7338 0.0000
vt 0.4871 0.7966 0.0000
vt 0.4457 0.7627 0.0000
vt 0.4105 0.8018 0.0000
vt 0.3795 0.7373 0.0000
vt 0.3414 0.7417 0.0000
vt 0.3232 0.6790 0.0000
vt 0.2735 0.7022 0.0000
vt 0.2573 0.6691 0.0000
vt 0.1934 0.6874 0.0000
vt 0.1933 0.6349 0.0000
vt 0.1422 0.6242 0.0000
vt 0.1761 0.5641 0.0000
vt 0.1536 0.5348 0.0000
vt 0.2019 0.4841 0.0000
vt 0.1822 0.4416 0.0000
# 255 texture coords

o Cylinder009
g Cylinder009
usemtl wire_022013010
s 2
f 1/1/1 2/2/2 3/3/3 4/4/4 
f 2/2/2 5/5/5 6/6/6 3/3/3 
f 7/7/7 8/8/8 3/9/3 6/10/6 
f 8/8/8 9/11/9 4/12/4 3/9/3 
f 5/5/5 10/13/10 11/14/11 6/6/6 
f 10/13/10 12/15/12 13/16/13 11/14/11 
f 14/17/14 15/18/15 11/19/11 13/20/13 
f 15/18/15 7/7/7 6/10/6 11/19/11 
f 12/15/12 16/21/16 17/22/17 13/16/13 
f 16/21/16 18/23/18 19/24/19 17/22/17 
f 20/25/20 21/26/21 17/27/17 19/28/19 
f 21/26/21 14/17/14 13/20/13 17/27/17 
f 18/29/18 22/30/22 23/31/23 19/32/19 
f 22/30/22 24/33/24 25/34/25 23/31/23 
f 26/35/26 27/36/27 23/37/23 25/38/25 
f 27/36/27 20/25/20 19/28/19 23/37/23 
f 24/33/24 28/39/28 29/40/29 25/34/25 
f 28/39/28 30/41/30 31/42/31 29/40/29 
f 32/43/32 33/44/33 29/45/29 31/46/31 
f 33/44/33 26/35/26 25/38/25 29/45/29 
f 30/41/30 34/47/34 35/48/35 31/42/31 
f 34/47/34 36/49/36 37/50/37 35/48/35 
f 38/51/38 39/52/39 35/53/35 37/54/37 
f 39/52/39 32/43/32 31/46/31 35/53/35 
f 36/49/36 40/55/40 41/56/41 37/50/37 
f 40/55/40 42/57/42 43/58/43 41/56/41 
f 44/59/44 45/60/45 41/61/41 43/62/43 
f 45/60/45 38/51/38 37/54/37 41/61/41 
f 42/57/42 46/63/46 47/64/47 43/58/43 
f 46/63/46 48/65/48 49/66/49 47/64/47 
f 50/67/50 51/68/51 47/69/47 49/70/49 
f 51/68/51 44/59/44 43/62/43 47/69/47 
f 48/65/48 52/71/52 53/72/53 49/66/49 
f 52/73/52 54/74/54 55/75/55 53/76/53 
f 56/77/56 57/78/57 53/79/53 55/80/55 
f 57/78/57 50/67/50 49/70/49 53/79/53 
f 54/74/54 58/81/58 59/82/59 55/75/55 
f 58/81/58 60/83/60 61/84/61 59/82/59 
f 62/85/62 63/86/63 59/87/59 61/88/61 
f 63/86/63 56/77/56 55/80/55 59/87/59 
f 60/83/60 64/89/64 65/90/65 61/84/61 
f 64/89/64 66/91/66 67/92/67 65/90/65 
f 68/93/68 69/94/69 65/95/65 67/96/67 
f 69/94/69 62/85/62 61/88/61 65/95/65 
f 66/97/66 70/98/70 71/99/71 67/100/67 
f 70/98/70 72/101/72 73/102/73 71/99/71 
f 74/103/74 75/104/75 71/105/71 73/106/73 
f 75/104/75 68/93/68 67/96/67 71/105/71 
f 72/101/72 76/107/76 77/108/77 73/102/73 
f 76/107/76 78/109/78 79/110/79 77/108/77 
f 80/111/80 81/112/81 77/113/77 79/114/79 
f 81/112/81 74/103/74 73/106/73 77/113/77 
f 78/115/78 82/116/82 83/117/83 79/118/79 
f 82/116/82 84/119/84 85/120/85 83/117/83 
f 86/121/86 87/122/87 83/123/83 85/124/85 
f 87/122/87 80/111/80 79/114/79 83/123/83 
f 84/119/84 88/125/88 89/126/89 85/120/85 
f 88/127/88 90/128/90 91/129/91 89/130/89 
f 92/131/92 93/132/93 89/133/89 91/134/91 
f 93/132/93 86/121/86 85/124/85 89/133/89 
f 90/128/90 94/135/94 95/136/95 91/129/91 
f 94/135/94 96/137/96 97/138/97 95/136/95 
f 98/139/98 99/140/99 95/141/95 97/142/97 
f 99/140/99 92/131/92 91/134/91 95/141/95 
f 96/143/96 100/144/100 101/145/101 97/146/97 
f 100/144/100 102/147/102 103/148/103 101/145/101 
f 104/149/104 105/150/105 101/151/101 103/152/103 
f 105/150/105 98/139/98 97/142/97 101/151/101 
f 102/147/102 106/153/106 107/154/107 103/148/103 
f 106/153/106 108/155/108 109/156/109 107/154/107 
f 110/157/110 111/158/111 107/159/107 109/160/109 
f 111/158/111 104/149/104 103/152/103 107/159/107 
f 108/155/108 112/161/112 113/162/113 109/156/109 
f 112/161/112 114/163/114 115/164/115 113/162/113 
f 116/165/116 117/166/117 113/167/113 115/168/115 
f 117/166/117 110/157/110 109/160/109 113/167/113 
f 114/163/114 118/169/118 119/170/119 115/164/115 
f 118/169/118 120/171/120 121/172/121 119/170/119 
f 122/173/122 123/174/123 119/175/119 121/176/121 
f 123/174/123 116/165/116 115/168/115 119/175/119 
f 120/171/120 124/177/124 125/178/125 121/172/121 
f 124/177/124 126/179/126 127/180/127 125/178/125 
f 128/181/128 129/182/129 125/183/125 127/184/127 
f 129/182/129 122/173/122 121/176/121 125/183/125 
f 126/185/126 130/186/130 131/187/131 127/188/127 
f 130/186/130 132/189/132 133/190/133 131/187/131 
f 134/191/134 135/192/135 131/193/131 133/194/133 
f 135/192/135 128/181/128 127/184/127 131/193/131 
f 132/189/132 136/195/136 137/196/137 133/190/133 
f 136/195/136 138/197/138 139/198/139 137/196/137 
f 140/199/140 141/200/141 137/201/137 139/202/139 
f 141/200/141 134/191/134 133/194/133 137/201/137 
f 138/197/138 142/203/142 143/204/143 139/198/139 
f 142/203/142 1/1/1 4/4/4 143/204/143 
f 9/11/9 144/205/144 143/206/143 4/12/4 
f 144/205/144 140/199/140 139/202/139 143/206/143 
f 9/11/9 8/8/8 145/207/145 146/208/146 
f 8/8/8 7/7/7 147/209/147 145/207/145 
f 148/210/148 146/208/146 145/207/145 147/209/147 
f 7/7/7 15/18/15 149/211/149 147/209/147 
f 15/18/15 14/17/14 150/212/150 149/211/149 
f 148/210/148 147/209/147 149/211/149 150/212/150 
f 14/17/14 21/26/21 151/213/151 150/212/150 
f 21/26/21 20/25/20 152/214/152 151/213/151 
f 148/210/148 150/212/150 151/213/151 152/214/152 
f 20/25/20 27/36/27 153/215/153 152/214/152 
f 27/36/27 26/35/26 154/216/154 153/215/153 
f 148/210/148 152/214/152 153/215/153 154/216/154 
f 26/35/26 33/44/33 155/217/155 154/216/154 
f 33/44/33 32/43/32 156/218/156 155/217/155 
f 148/210/148 154/216/154 155/217/155 156/218/156 
f 32/43/32 39/52/39 157/219/157 156/218/156 
f 39/52/39 38/51/38 158/220/158 157/219/157 
f 148/210/148 156/218/156 157/219/157 158/220/158 
f 38/51/38 45/60/45 159/221/159 158/220/158 
f 45/60/45 44/59/44 160/222/160 159/221/159 
f 148/210/148 158/220/158 159/221/159 160/222/160 
f 44/59/44 51/68/51 161/223/161 160/222/160 
f 51/68/51 50/67/50 162/224/162 161/223/161 
f 148/210/148 160/222/160 161/223/161 162/224/162 
f 50/67/50 57/78/57 163/225/163 162/224/162 
f 57/78/57 56/77/56 164/226/164 163/225/163 
f 148/210/148 162/224/162 163/225/163 164/226/164 
f 56/77/56 63/86/63 165/227/165 164/226/164 
f 63/86/63 62/85/62 166/228/166 165/227/165 
f 148/210/148 164/226/164 165/227/165 166/228/166 
f 62/85/62 69/94/69 167/229/167 166/228/166 
f 69/94/69 68/93/68 168/230/168 167/229/167 
f 148/210/148 166/228/166 167/229/167 168/230/168 
f 68/93/68 75/104/75 169/231/169 168/230/168 
f 75/104/75 74/103/74 170/232/170 169/231/169 
f 148/210/148 168/230/168 169/231/169 170/232/170 
f 74/103/74 81/112/81 171/233/171 170/232/170 
f 81/112/81 80/111/80 172/234/172 171/233/171 
f 148/210/148 170/232/170 171/233/171 172/234/172 
f 80/111/80 87/122/87 173/235/173 172/234/172 
f 87/122/87 86/121/86 174/236/174 173/235/173 
f 148/210/148 172/234/172 173/235/173 174/236/174 
f 86/121/86 93/132/93 175/237/175 174/236/174 
f 93/132/93 92/131/92 176/238/176 175/237/175 
f 148/210/148 174/236/174 175/237/175 176/238/176 
f 92/131/92 99/140/99 177/239/177 176/238/176 
f 99/140/99 98/139/98 178/240/178 177/239/177 
f 148/210/148 176/238/176 177/239/177 178/240/178 
f 98/139/98 105/150/105 179/241/179 178/240/178 
f 105/150/105 104/149/104 180/242/180 179/241/179 
f 148/210/148 178/240/178 179/241/179 180/242/180 
f 104/149/104 111/158/111 181/243/181 180/242/180 
f 111/158/111 110/157/110 182/244/182 181/243/181 
f 148/210/148 180/242/180 181/243/181 182/244/182 
f 110/157/110 117/166/117 183/245/183 182/244/182 
f 117/166/117 116/165/116 184/246/184 183/245/183 
f 148/210/148 182/244/182 183/245/183 184/246/184 
f 116/165/116 123/174/123 185/247/185 184/246/184 
f 123/174/123 122/173/122 186/248/186 185/247/185 
f 148/210/148 184/246/184 185/247/185 186/248/186 
f 122/173/122 129/182/129 187/249/187 186/248/186 
f 129/182/129 128/181/128 188/250/188 187/249/187 
f 148/210/148 186/248/186 187/249/187 188/250/188 
f 128/181/128 135/192/135 189/251/189 188/250/188 
f 135/192/135 134/191/134 190/252/190 189/251/189 
f 148/210/148 188/250/188 189/251/189 190/252/190 
f 134/191/134 141/200/141 191/253/191 190/252/190 
f 141/200/141 140/199/140 192/254/192 191/253/191 
f 148/210/148 190/252/190 191/253/191 192/254/192 
f 140/199/140 144/205/144 193/255/193 192/254/192 
f 144/205/144 9/11/9 146/208/146 193/255/193 
f 148/210/148 192/254/192 193/255/193 146/208/146 
# 168 polygons

